<mxfile host="app.diagrams.net" modified="2021-02-25T10:09:26.993Z" agent="5.0 (Linux; U; Android 10; zh-CN; MI 8 Build/QKQ1.190828.002) AppleWebKit/537.36 (KHTML, like Gecko) Version/4.0 Chrome/78.0.3904.108 UCBrowser/13.2.8.1108 Mobile Safari/537.36" etag="pqKQYHkZr0aGb9F39t4O" version="14.4.3" type="github">
  <diagram id="N4fQeOYekmrG8ccF4Qt6" name="Page-1">
    <mxGraphModel dx="359" dy="569" grid="1" gridSize="10" guides="1" tooltips="1" connect="1" arrows="1" fold="1" page="1" pageScale="1" pageWidth="827" pageHeight="1169" math="0" shadow="0">
      <root>
        <mxCell id="0" />
        <mxCell id="1" parent="0" />
        <mxCell id="Qk89Dgfy6HBJxyoY53Jf-1" value="" style="rounded=1;whiteSpace=wrap;html=1;" vertex="1" parent="1">
          <mxGeometry x="230" y="150" width="120" height="60" as="geometry" />
        </mxCell>
      </root>
    </mxGraphModel>
  </diagram>
</mxfile>
